<svg xmlns="http://www.w3.org/2000/svg" xmlns:xlink="http://www.w3.org/1999/xlink" contentStyleType="text/css" data-diagram-type="CLASS" height="258px" preserveAspectRatio="none" style="width:468px;height:258px;background:#FFFFFF;" version="1.1" viewBox="0 0 468 258" width="468px" zoomAndPan="magnify"><defs/><g><!--class Object--><g class="entity" data-entity="Object" data-source-line="6" data-uid="ent0002" id="entity_Object"><rect fill="#FFFFFF" height="98.7754" rx="2.5" ry="2.5" style="stroke:#AAAAAA;stroke-width:0.5;" width="145.2354" x="27.4" y="7"/><ellipse cx="78.5594" cy="20" fill="#A9DCDF" rx="8" ry="8" style="stroke:#181818;stroke-width:1;"/><path d="M82.4706,23.5 L80.3382,23.5 L79.785,21.8833 L76.8202,21.8833 L76.2669,23.5 L74.1883,23.5 L77.1424,15.5024 L79.5165,15.5024 Z M79.2855,20.417 L78.3026,17.5488 L77.3197,20.417 Z " fill="#000000"/><text fill="#333333" font-family="Verdana" font-size="11" font-style="italic" lengthAdjust="spacing" textLength="35.9165" x="94.5594" y="24.3748">Object</text><line style="stroke:#AAAAAA;stroke-width:0.5;" x1="28.4" x2="171.6354" y1="33" y2="33"/><ellipse cx="38.4" cy="44.4775" fill="#84BE84" rx="3" ry="3" style="stroke:#038048;stroke-width:1;"/><text fill="#333333" font-family="sans-serif" font-size="11" lengthAdjust="spacing" textLength="41.8462" x="44.4" y="47.6348">Object()</text><polygon fill="#FFFFFF" points="38.4,53.4326,34.4,59.4326,42.4,59.4326" style="stroke:#AAAAAA;stroke-width:1;"/><text fill="#333333" font-family="sans-serif" font-size="11" lengthAdjust="spacing" textLength="41.8462" x="44.4" y="60.5898">Object()</text><ellipse cx="38.4" cy="70.3877" fill="#84BE84" rx="3" ry="3" style="stroke:#038048;stroke-width:1;"/><text fill="#333333" font-family="sans-serif" font-size="11" lengthAdjust="spacing" textLength="86.8398" x="44.4" y="73.5449">string ToString()</text><ellipse cx="38.4" cy="83.3428" fill="#84BE84" rx="3" ry="3" style="stroke:#038048;stroke-width:1;"/><text fill="#333333" font-family="sans-serif" font-size="11" lengthAdjust="spacing" textLength="122.2354" x="44.4" y="86.5">bool Equals(object obj)</text><ellipse cx="38.4" cy="96.2979" fill="#84BE84" rx="3" ry="3" style="stroke:#038048;stroke-width:1;"/><text fill="#333333" font-family="sans-serif" font-size="11" lengthAdjust="spacing" textLength="96.959" x="44.4" y="99.4551">int GetHashCode()</text></g><!--class Pessoa--><g class="entity" data-entity="Pessoa" data-source-line="14" data-uid="ent0003" id="entity_Pessoa"><rect fill="#FFFFFF" height="85.8203" rx="2.5" ry="2.5" style="stroke:#AAAAAA;stroke-width:0.5;" width="186.0396" x="7" y="165.78"/><ellipse cx="77.5544" cy="178.78" fill="#1A66C2" rx="8" ry="8" style="stroke:#181818;stroke-width:1;"/><path d="M77.6897,183.1858 Q76.7981,183.1858 76.0435,182.9226 Q75.2888,182.6594 74.7463,182.1384 Q74.2039,181.6174 73.9058,180.8386 Q73.6077,180.0598 73.6077,179.0393 Q73.6077,178.0886 73.8923,177.3152 Q74.177,176.5417 74.7195,175.9885 Q75.2405,175.4568 76.0112,175.1667 Q76.782,174.8767 77.6951,174.8767 Q78.2,174.8767 78.6055,174.9331 Q79.011,174.9895 79.3547,175.0808 Q79.7146,175.1828 80.0073,175.3091 Q80.3,175.4353 80.5203,175.5427 L80.5203,177.4817 L80.2839,177.4817 Q80.1335,177.3528 79.9053,177.1755 Q79.677,176.9983 79.387,176.8264 Q79.0916,176.6545 78.7478,176.5363 Q78.4041,176.4182 78.012,176.4182 Q77.5769,176.4182 77.1848,176.5551 Q76.7927,176.6921 76.4597,177.009 Q76.1428,177.3152 75.9468,177.82 Q75.7507,178.3249 75.7507,179.0446 Q75.7507,179.7966 75.9629,180.3015 Q76.175,180.8064 76.4973,181.0964 Q76.825,181.3918 77.2278,181.518 Q77.6306,181.6443 78.0227,181.6443 Q78.3987,181.6443 78.7666,181.5315 Q79.1345,181.4187 79.446,181.2253 Q79.7092,181.0696 79.9348,180.8923 Q80.1604,180.7151 80.3054,180.5862 L80.5203,180.5862 L80.5203,182.4983 Q80.2195,182.6325 79.9456,182.7507 Q79.6716,182.8689 79.3708,182.9548 Q78.9788,183.0676 78.635,183.1267 Q78.2913,183.1858 77.6897,183.1858 Z " fill="#000000"/><text fill="#333333" font-family="Verdana" font-size="11" lengthAdjust="spacing" textLength="37.9307" x="93.5544" y="183.1548">Pessoa</text><line style="stroke:#AAAAAA;stroke-width:0.5;" x1="8" x2="192.0396" y1="191.78" y2="191.78"/><ellipse cx="18" cy="203.2575" fill="#84BE84" rx="3" ry="3" style="stroke:#038048;stroke-width:1;"/><text fill="#333333" font-family="sans-serif" font-size="11" lengthAdjust="spacing" textLength="163.0396" x="24" y="206.4148">Pessoa(string Nome, int Idade)</text><ellipse cx="18" cy="216.2126" fill="#84BE84" rx="3" ry="3" style="stroke:#038048;stroke-width:1;"/><text fill="#333333" font-family="sans-serif" font-size="11" lengthAdjust="spacing" textLength="93.5859" x="24" y="219.3698">string Nome {get}</text><ellipse cx="18" cy="229.1677" fill="#84BE84" rx="3" ry="3" style="stroke:#038048;stroke-width:1;"/><text fill="#333333" font-family="sans-serif" font-size="11" lengthAdjust="spacing" textLength="74.5562" x="24" y="232.3249">int Idade {get}</text><ellipse cx="18" cy="242.1228" fill="#84BE84" rx="3" ry="3" style="stroke:#038048;stroke-width:1;"/><text fill="#333333" font-family="sans-serif" font-size="11" lengthAdjust="spacing" textLength="86.8398" x="24" y="245.28">string ToString()</text></g><path d="M228.45,185.32 L228.45,199.6887 L110.8398,241.1228 L228.45,207.6887 L228.45,222.0573 A0,0 0 0 0 228.45,222.0573 L461.5921,222.0573 A0,0 0 0 0 461.5921,222.0573 L461.5921,195.32 L451.5921,185.32 L228.45,185.32 A0,0 0 0 0 228.45,185.32" fill="#2A86E2" style="stroke:#1A66C2;stroke-width:0.5;"/><path d="M451.5921,185.32 L451.5921,195.32 L461.5921,195.32 L451.5921,185.32" fill="#2A86E2" style="stroke:#1A66C2;stroke-width:0.5;"/><text fill="#000000" font-family="Verdana" font-size="11" lengthAdjust="spacing" textLength="212.1421" x="234.45" y="201.3791">Esta implementa&#231;&#227;o do m&#233;todo vai-se</text><text fill="#000000" font-family="Verdana" font-size="11" lengthAdjust="spacing" textLength="125.4741" x="234.45" y="214.7477">sobrepor &#224; herdada de</text><text fill="#000000" font-family="monospace" font-size="11" lengthAdjust="spacing" textLength="39.7354" x="363.7913" y="214.4631">Object</text><text fill="#000000" font-family="Verdana" font-size="11" lengthAdjust="spacing" textLength="3.8672" x="403.5267" y="214.7477">&#160;</text><!--reverse link Object to Pessoa--><g class="link" data-entity-1="Object" data-entity-2="Pessoa" data-source-line="21" data-uid="lnk4" id="link_Object_Pessoa"><path codeLine="21" d="M100.02,124.19 C100.02,143.39 100.02,147.22 100.02,165.7" fill="none" id="Object-backto-Pessoa" style="stroke:#000000;stroke-width:1;"/><polygon fill="none" points="100.02,106.19,94.02,124.19,106.02,124.19,100.02,106.19" style="stroke:#000000;stroke-width:1;"/></g><!--SRC=[PL71RjGm4BtxAwPxMbHsasOtIRFY15grbIf0edo07SycHh4ds1CGMfPlGUA0-8xzCTmcMxNWo_ZDyvltHZxJk3CEuVRcwlhkzUt7hJWphku6ZOFle6NkmoP96XDusHXk1pK4z3KvHiVBccmYRHCIZNcP5sbwaSbBcUzIN6VhTBUgCbMKbtAT9bv-JLIvAlIgr4L-WQdILPRfgYwoN6RhAi-BeYoqr5bL9u6_TRZi1zi9mTG34oXY9WlQUApPa1D2gi1UrWnr9qE0T-fJP60l89xp4SrVFA0Vpz1vb1dNm1rzUBYSsegeW-tdGNPXJkEmM2RIE8Ohv6iPsZUaCMeEGep6xp44aYVZ4SqdZxTayINSYs_YQZWDsrlablG1dho2VODy-8T_53vb_uyVeqpRl_g-M4o1X7342DuqRLnaDtKtcvDER0DBCBRlqCQlbCVVnry4ci0U_p35-aMQHK0HI7dioSFn9xJeOne9CT1iDbhEPY3GQRWt4ty1]--></g></svg>