<svg xmlns="http://www.w3.org/2000/svg" xmlns:xlink="http://www.w3.org/1999/xlink" contentStyleType="text/css" data-diagram-type="ACTIVITY" height="691px" preserveAspectRatio="none" style="width:740px;height:691px;background:#FFFFFF;" version="1.1" viewBox="0 0 740 691" width="740px" zoomAndPan="magnify"><defs/><g><ellipse cx="138.5759" cy="20" fill="#222222" rx="10" ry="10" style="stroke:#222222;stroke-width:1;"/><path d="M223.9949,48.3157 L223.9949,85.053 L513.7698,85.053 L513.7698,58.3157 L503.7698,48.3157 L223.9949,48.3157" fill="#2A86E2" style="stroke:#1A66C2;stroke-width:0.5;"/><path d="M503.7698,48.3157 L503.7698,58.3157 L513.7698,58.3157 L503.7698,48.3157" fill="#2A86E2" style="stroke:#1A66C2;stroke-width:0.5;"/><text fill="#000000" font-family="Verdana" font-size="11" lengthAdjust="spacing" textLength="178.2129" x="229.9949" y="64.3748">O ciclo exterior &#233; iniciado tantas</text><text fill="#000000" font-family="Verdana" font-size="11" lengthAdjust="spacing" textLength="268.7749" x="229.9949" y="77.7434">vezes quantos o n&#250;mero de elementos no array.</text><rect fill="#FFFFFF" height="33.3687" style="stroke:#AAAAAA;stroke-width:0.5;" width="130.8379" x="73.157" y="50"/><line style="stroke:#AAAAAA;stroke-width:0.5;" x1="78.157" x2="78.157" y1="50" y2="83.3687"/><line style="stroke:#AAAAAA;stroke-width:0.5;" x1="198.9949" x2="198.9949" y1="50" y2="83.3687"/><text fill="#000000" font-family="Verdana" font-size="11" lengthAdjust="spacing" textLength="110.8379" x="83.157" y="71.0591">Array de tamanho n</text><rect fill="none" height="535.1885" style="stroke:#000000;stroke-width:1.5;" width="718.2266" x="11" y="95.053"/><path d="M112.5059,95.053 L112.5059,104.5413 L102.5059,114.5413 L11,114.5413" fill="none" style="stroke:#000000;stroke-width:1.5;"/><text fill="#000000" font-family="sans-serif" font-size="14" lengthAdjust="spacing" textLength="91.5059" x="14" y="109.5881">Ciclo exterior</text><rect fill="none" height="391.3315" style="stroke:#000000;stroke-width:1.5;" width="680.2266" x="21" y="174.9099"/><path d="M118.8555,174.9099 L118.8555,184.3982 L108.8555,194.3982 L21,194.3982" fill="none" style="stroke:#000000;stroke-width:1.5;"/><text fill="#000000" font-family="sans-serif" font-size="14" lengthAdjust="spacing" textLength="87.8555" x="24" y="189.4451">Ciclo interior</text><path d="M280.1519,360.4512 L280.1519,397.1885 L681.2266,397.1885 L681.2266,370.4512 L671.2266,360.4512 L280.1519,360.4512" fill="#2A86E2" style="stroke:#1A66C2;stroke-width:0.5;"/><path d="M671.2266,360.4512 L671.2266,370.4512 L681.2266,370.4512 L671.2266,360.4512" fill="#2A86E2" style="stroke:#1A66C2;stroke-width:0.5;"/><text fill="#000000" font-family="Verdana" font-size="11" lengthAdjust="spacing" textLength="247.0757" x="286.1519" y="376.5103">Por cada elemento obtido pelo ciclo exterior,</text><text fill="#000000" font-family="Verdana" font-size="11" lengthAdjust="spacing" textLength="380.0747" x="286.1519" y="389.8789">o ciclo interior &#233; executado, e percorre todos os elementos do array.</text><rect fill="#FFFFFF" height="33.3687" rx="12.5" ry="12.5" style="stroke:#AAAAAA;stroke-width:0.5;" width="130.7627" x="73.1946" y="264.7668"/><text fill="#000000" font-family="Verdana" font-size="11" lengthAdjust="spacing" textLength="110.7627" x="83.1946" y="285.8259">Compara elementos</text><rect fill="#FFFFFF" height="33.3687" rx="12.5" ry="12.5" style="stroke:#AAAAAA;stroke-width:0.5;" width="156.6084" x="60.2717" y="366.8198"/><text fill="#000000" font-family="Verdana" font-size="11" lengthAdjust="spacing" textLength="136.6084" x="70.2717" y="387.8789">Troca a posi&#231;&#227;o de A e B</text><polygon fill="#FFFFFF" points="122.6775,318.1355,154.4744,318.1355,166.4744,330.1355,154.4744,342.1355,122.6775,342.1355,110.6775,330.1355,122.6775,318.1355" style="stroke:#AAAAAA;stroke-width:0.5;"/><text fill="#333333" font-family="Verdana" font-size="11" lengthAdjust="spacing" textLength="21.2373" x="142.5759" y="353.1946">Sim</text><text fill="#000000" font-family="Verdana" font-size="11" lengthAdjust="spacing" textLength="31.7969" x="122.6775" y="334.5103">A &gt; B</text><text fill="#333333" font-family="Verdana" font-size="11" lengthAdjust="spacing" textLength="21.5112" x="166.4744" y="327.8259">N&#227;o</text><polygon fill="#FFFFFF" points="138.5759,424.8728,150.5759,436.8728,138.5759,448.8728,126.5759,436.8728,138.5759,424.8728" style="stroke:#AAAAAA;stroke-width:0.5;"/><rect fill="#FFFFFF" height="33.3687" rx="12.5" ry="12.5" style="stroke:#AAAAAA;stroke-width:0.5;" width="51.7969" x="112.6775" y="468.8728"/><text fill="#000000" font-family="Verdana" font-size="11" lengthAdjust="spacing" textLength="31.7969" x="122.6775" y="489.9319">A = B</text><rect fill="#FFFFFF" height="33.3687" rx="12.5" ry="12.5" style="stroke:#AAAAAA;stroke-width:0.5;" width="195.0869" x="41.0325" y="211.3982"/><text fill="#000000" font-family="Verdana" font-size="11" lengthAdjust="spacing" textLength="175.0869" x="51.0325" y="232.4573">Obt&#233;m o elemento seguinte (B)</text><polygon fill="#FFFFFF" points="43,522.2415,234.1519,522.2415,246.1519,534.2415,234.1519,546.2415,43,546.2415,31,534.2415,43,522.2415" style="stroke:#AAAAAA;stroke-width:0.5;"/><text fill="#333333" font-family="Verdana" font-size="11" lengthAdjust="spacing" textLength="21.5112" x="142.5759" y="557.3005">N&#227;o</text><text fill="#000000" font-family="Verdana" font-size="11" lengthAdjust="spacing" textLength="191.1519" x="43" y="538.6162">Existem mais elementos no array?</text><text fill="#333333" font-family="Verdana" font-size="11" lengthAdjust="spacing" textLength="21.2373" x="246.1519" y="531.9319">Sim</text><rect fill="#FFFFFF" height="33.3687" rx="12.5" ry="12.5" style="stroke:#AAAAAA;stroke-width:0.5;" width="194.3081" x="41.4219" y="131.5413"/><text fill="#000000" font-family="Verdana" font-size="11" lengthAdjust="spacing" textLength="174.3081" x="51.4219" y="152.6003">Obt&#233;m o primeiro elemento (A)</text><polygon fill="#FFFFFF" points="86.0708,586.2415,191.0811,586.2415,203.0811,598.2415,191.0811,610.2415,86.0708,610.2415,74.0708,598.2415,86.0708,586.2415" style="stroke:#AAAAAA;stroke-width:0.5;"/><text fill="#333333" font-family="Verdana" font-size="11" lengthAdjust="spacing" textLength="21.2373" x="142.5759" y="621.3005">Sim</text><text fill="#000000" font-family="Verdana" font-size="11" lengthAdjust="spacing" textLength="105.0103" x="86.0708" y="602.6162">Percorreu n vezes?</text><text fill="#333333" font-family="Verdana" font-size="11" lengthAdjust="spacing" textLength="21.5112" x="203.0811" y="595.9319">N&#227;o</text><path d="M169.5759,642.8728 L169.5759,679.6101 L563.5769,679.6101 L563.5769,652.8728 L553.5769,642.8728 L169.5759,642.8728" fill="#2A86E2" style="stroke:#1A66C2;stroke-width:0.5;"/><path d="M553.5769,642.8728 L553.5769,652.8728 L563.5769,652.8728 L553.5769,642.8728" fill="#2A86E2" style="stroke:#1A66C2;stroke-width:0.5;"/><text fill="#000000" font-family="Verdana" font-size="11" lengthAdjust="spacing" textLength="373.001" x="175.5759" y="658.9319">No final de cada itera&#231;&#227;o do ciclo exterior, temos a garantia de que</text><text fill="#000000" font-family="Verdana" font-size="11" lengthAdjust="spacing" textLength="308.4512" x="175.5759" y="672.3005">pelo menos um elemento ficou corretamente ordenado.</text><ellipse cx="138.5759" cy="661.2415" fill="none" rx="11" ry="11" style="stroke:#222222;stroke-width:1;"/><ellipse cx="138.5759" cy="661.2415" fill="#222222" rx="6" ry="6" style="stroke:#222222;stroke-width:1;"/><line style="stroke:#000000;stroke-width:1;" x1="138.5759" x2="138.5759" y1="30" y2="50"/><polygon fill="#000000" points="134.5759,40,138.5759,50,142.5759,40,138.5759,44" style="stroke:#000000;stroke-width:1;"/><line style="stroke:#000000;stroke-width:1;" x1="138.5759" x2="138.5759" y1="342.1355" y2="366.8198"/><polygon fill="#000000" points="134.5759,356.8198,138.5759,366.8198,142.5759,356.8198,138.5759,360.8198" style="stroke:#000000;stroke-width:1;"/><line style="stroke:#000000;stroke-width:1;" x1="166.4744" x2="226.8801" y1="330.1355" y2="330.1355"/><polygon fill="#000000" points="222.8801,373.5042,226.8801,383.5042,230.8801,373.5042,226.8801,377.5042" style="stroke:#000000;stroke-width:1;"/><line style="stroke:#000000;stroke-width:1;" x1="226.8801" x2="226.8801" y1="330.1355" y2="436.8728"/><line style="stroke:#000000;stroke-width:1;" x1="226.8801" x2="150.5759" y1="436.8728" y2="436.8728"/><polygon fill="#000000" points="160.5759,432.8728,150.5759,436.8728,160.5759,440.8728,156.5759,436.8728" style="stroke:#000000;stroke-width:1;"/><line style="stroke:#000000;stroke-width:1;" x1="138.5759" x2="138.5759" y1="400.1885" y2="424.8728"/><polygon fill="#000000" points="134.5759,414.8728,138.5759,424.8728,142.5759,414.8728,138.5759,418.8728" style="stroke:#000000;stroke-width:1;"/><line style="stroke:#000000;stroke-width:1;" x1="138.5759" x2="138.5759" y1="298.1355" y2="318.1355"/><polygon fill="#000000" points="134.5759,308.1355,138.5759,318.1355,142.5759,308.1355,138.5759,312.1355" style="stroke:#000000;stroke-width:1;"/><line style="stroke:#000000;stroke-width:1;" x1="138.5759" x2="138.5759" y1="448.8728" y2="468.8728"/><polygon fill="#000000" points="134.5759,458.8728,138.5759,468.8728,142.5759,458.8728,138.5759,462.8728" style="stroke:#000000;stroke-width:1;"/><line style="stroke:#000000;stroke-width:1;" x1="138.5759" x2="138.5759" y1="244.7668" y2="264.7668"/><polygon fill="#000000" points="134.5759,254.7668,138.5759,264.7668,142.5759,254.7668,138.5759,258.7668" style="stroke:#000000;stroke-width:1;"/><line style="stroke:#000000;stroke-width:1;" x1="246.1519" x2="258.1519" y1="534.2415" y2="534.2415"/><polygon fill="#000000" points="254.1519,391.162,258.1519,381.162,262.1519,391.162,258.1519,387.162" style="stroke:#000000;stroke-width:1;"/><line style="stroke:#000000;stroke-width:1;" x1="258.1519" x2="258.1519" y1="228.0825" y2="534.2415"/><line style="stroke:#000000;stroke-width:1;" x1="258.1519" x2="236.1194" y1="228.0825" y2="228.0825"/><polygon fill="#000000" points="246.1194,224.0825,236.1194,228.0825,246.1194,232.0825,242.1194,228.0825" style="stroke:#000000;stroke-width:1;"/><line style="stroke:#000000;stroke-width:1;" x1="138.5759" x2="138.5759" y1="502.2415" y2="522.2415"/><polygon fill="#000000" points="134.5759,512.2415,138.5759,522.2415,142.5759,512.2415,138.5759,516.2415" style="stroke:#000000;stroke-width:1;"/><line style="stroke:#000000;stroke-width:1;" x1="138.5759" x2="138.5759" y1="164.9099" y2="211.3982"/><polygon fill="#000000" points="134.5759,201.3982,138.5759,211.3982,142.5759,201.3982,138.5759,205.3982" style="stroke:#000000;stroke-width:1;"/><line style="stroke:#000000;stroke-width:1;" x1="203.0811" x2="713.2266" y1="598.2415" y2="598.2415"/><polygon fill="#000000" points="709.2266,378.2335,713.2266,368.2335,717.2266,378.2335,713.2266,374.2335" style="stroke:#000000;stroke-width:1;"/><line style="stroke:#000000;stroke-width:1;" x1="713.2266" x2="713.2266" y1="148.2256" y2="598.2415"/><line style="stroke:#000000;stroke-width:1;" x1="713.2266" x2="235.73" y1="148.2256" y2="148.2256"/><polygon fill="#000000" points="245.73,144.2256,235.73,148.2256,245.73,152.2256,241.73,148.2256" style="stroke:#000000;stroke-width:1;"/><line style="stroke:#000000;stroke-width:1;" x1="138.5759" x2="138.5759" y1="546.2415" y2="586.2415"/><polygon fill="#000000" points="134.5759,576.2415,138.5759,586.2415,142.5759,576.2415,138.5759,580.2415" style="stroke:#000000;stroke-width:1;"/><line style="stroke:#000000;stroke-width:1;" x1="138.5759" x2="138.5759" y1="83.3687" y2="131.5413"/><polygon fill="#000000" points="134.5759,121.5413,138.5759,131.5413,142.5759,121.5413,138.5759,125.5413" style="stroke:#000000;stroke-width:1;"/><line style="stroke:#000000;stroke-width:1;" x1="138.5759" x2="138.5759" y1="610.2415" y2="650.2415"/><polygon fill="#000000" points="134.5759,640.2415,138.5759,650.2415,142.5759,640.2415,138.5759,644.2415" style="stroke:#000000;stroke-width:1;"/><!--SRC=[RLFRJjj047ttLmmy9L8L1nCx952g1A6s4WAaqW_OUCVEIDvTivS2hVYQFbJyGb_pOnsR12SDypYxS-QSCpC74WlI25TVFt-vcrzzlumEIETLa1Xi1KllQpUDuvAS7vJabs4H7DhSQ8_Q3tAZOg5A5qjCnsas71ubuaIanH17oMXO74-IHJO-4QDXRCL3l1WVP_9uBBFq28SBEKaIEScp91N9Q9AcMJREf93998-TVwfmK0TLHP7pmlfeEhDMF854y489lJIWJy_EQcjobC7Y-NbKL4PuqYLeun4ibKiV0SSDv9HN1l3HeoLZOVK2f2ad8Gs3QIzS- -y7_aG7zu4pnW7Zh_ugjAPfYHKgRDFQW6Y832BKikqKrKoFF1aDXnSxZGxXLmjiiKRXONgpyAiNnSYr9ON4q1jSwCtwf-tVFJ3Iks1D_2Tm4xUiBHTITB1cuOb5riX0koPysAdSl6wQDHRX8-R1iqSV01c19sujcszaOuxRiaI-MRA1UxDcazXpu8sXmp8qNQ4tNplGnFJ2A7QYK-AwDofwCpY7UH_y4ZNqlf7gxuYPtl5I211G6qUhFwlVxGXdh6BUeM3bkESrF_QtQLFHSPZ1n-sAjOQ79LLSUVd8zu0Ab23tpdfywWFdMswD4zkTdgDzjDkrlG7qwngkwzkgLu1MvZCVWwdVtVHh0tp5ecgqjaj0F4gnbhytVM3kJ5T0oIvhJw8fkm-ypCsgi1X-3AeRKq6v2T1ovFF3Pc36IjIy7jqb_0C0]--></g></svg>